<?xml version="1.0" ?>
<svg xmlns="http://www.w3.org/2000/svg" xmlns:xlink="http://www.w3.org/1999/xlink">
    <symbol viewBox="0 0 48 48" id="account_auth_test" xmlns="http://www.w3.org/2000/svg">
        <path
            d="M24 21a10 10 0 1 1 10-10 10 10 0 0 1-10 10Zm0-16a6 6 0 1 0 6 6 6 6 0 0 0-6-6ZM42 47H6a2 2 0 0 1-2-2v-6a16 16 0 0 1 16-16h8a16 16 0 0 1 16 16v6a2 2 0 0 1-2 2ZM8 43h32v-4a12 12 0 0 0-12-12h-8A12 12 0 0 0 8 39Z" />
    </symbol>
    <symbol xml:space="preserve" viewBox="0 0 256 256" id="chatgpt" xmlns="http://www.w3.org/2000/svg">
        <g
            style="stroke:none;stroke-width:0;stroke-dasharray:none;stroke-linecap:butt;stroke-linejoin:miter;stroke-miterlimit:10;fill:none;fill-rule:nonzero;opacity:1">
            <path
                d="m73.301 38.94-.023-.019a16.564 16.564 0 0 0-1.446-13.465c-3.614-6.26-10.85-9.498-17.913-8.004l-.028.01a16.563 16.563 0 0 0-12.384-5.48c-7.229 0-13.65 4.647-15.888 11.511l-.005.03a16.561 16.561 0 0 0-10.938 7.985c-3.614 6.26-2.8 14.145 2.025 19.515l.023.019a16.564 16.564 0 0 0 1.446 13.465c3.614 6.26 10.85 9.498 17.913 8.004l.028-.01a16.563 16.563 0 0 0 12.384 5.48c7.229 0 13.65-4.648 15.888-11.511l.005-.03a16.561 16.561 0 0 0 10.938-7.985c3.614-6.26 2.8-14.145-2.025-19.515zm-21.762 9.816L45 52.531l-6.539-3.775v-7.55L45 37.431l6.539 3.775v7.55zM68.117 27.6l-.03-.008a12.395 12.395 0 0 1 1.498 8.271l-13.492-7.789a2.207 2.207 0 0 0-.546-.222 2.161 2.161 0 0 0-1.667.216l-15.407 8.895-.005-6.499 12.727-7.351a12.322 12.322 0 0 1 3.96-1.454l-.008-.028c5.004-.923 10.269 1.309 12.97 5.969zM41.506 16.271l-.022.022c2.896 0 5.679.996 7.912 2.838L35.905 26.92c-.175.101-.33.224-.466.362-.41.4-.647.955-.647 1.552v17.791l-5.631-3.246-.002-14.697a12.332 12.332 0 0 1 .721-4.157l-.028-.007c1.702-4.795 6.268-8.238 11.654-8.247zM18.389 33.652l.008.03a12.397 12.397 0 0 1 6.414-5.433v15.579c0 .202.029.397.081.584a2.16 2.16 0 0 0 1.02 1.336l15.407 8.895-5.626 3.254-12.729-7.347a12.328 12.328 0 0 1-3.239-2.702l-.02.021c-3.302-3.872-4.001-9.548-1.316-14.217zm3.494 28.71.03.008a12.395 12.395 0 0 1-1.498-8.271l13.492 7.789c.175.101.359.173.546.222.551.155 1.15.083 1.667-.216L51.527 53l.005 6.499-12.727 7.351a12.322 12.322 0 0 1-3.96 1.454l.008.028c-5.004.923-10.269-1.309-12.97-5.97zm26.611 11.329.022-.022c-2.896 0-5.679-.996-7.912-2.838l13.492-7.789a2.22 2.22 0 0 0 .466-.362c.41-.4.647-.955.647-1.552v-17.79l5.631 3.246.002 14.697a12.332 12.332 0 0 1-.721 4.157l.028.007c-1.703 4.794-6.269 8.238-11.655 8.246zm23.117-17.38-.008-.03a12.397 12.397 0 0 1-6.414 5.433V46.135c0-.202-.029-.397-.081-.584a2.16 2.16 0 0 0-1.02-1.336L48.681 35.32l5.626-3.254 12.729 7.346a12.313 12.313 0 0 1 3.239 2.703l.02-.021c3.302 3.872 4.001 9.547 1.316 14.217z"
                style="stroke:none;stroke-width:1;stroke-dasharray:none;stroke-linecap:butt;stroke-linejoin:miter;stroke-miterlimit:10;fill:#000;fill-rule:nonzero;opacity:1"
                transform="matrix(2.81 0 0 2.81 1.407 1.407)" />
            <path
                d="M76.051 90H13.95C6.258 90 0 83.742 0 76.051V13.95C0 6.258 6.258 0 13.95 0h62.101C83.742 0 90 6.258 90 13.95v62.101C90 83.742 83.742 90 76.051 90zM13.95 4C8.463 4 4 8.463 4 13.95v62.101C4 81.537 8.463 86 13.95 86h62.101C81.537 86 86 81.537 86 76.051V13.95C86 8.463 81.537 4 76.051 4H13.95z"
                style="stroke:none;stroke-width:1;stroke-dasharray:none;stroke-linecap:butt;stroke-linejoin:miter;stroke-miterlimit:10;fill:#000;fill-rule:nonzero;opacity:1"
                transform="matrix(2.81 0 0 2.81 1.407 1.407)" />
        </g>
    </symbol>
</svg>